# File created by Blade
# Date/Time:  Tue Apr 07 20:17:56 2015
# Frame Rate: 120.000 fps
#------------------------------------------------------
:FULLY-SPECIFIED
:DEGREES
1795
root 3.400051 32.752745 -7.485127 13.562885 -1.026609 -1.426663
Spine -16.246468 -3.569046 0.321430
Head 15.767690 2.658795 1.170411
LeftShoulder -22.601303 40.459996 20.913839
LeftArm 54.069051 -57.954715 -59.109348
LeftForeArm 8.160924 0.000000 -1.448000
LeftHand 6.294847 0.000000 2.568213
LeftHandThumb1 -26.253704 0.000000 33.147579
RightShoulder -9.608515 7.424871 -33.487944
RightArm 9.860191 17.392972 36.054431
RightForeArm -12.656830 0.000000 1.308704
RightHand 1.771891 -0.000000 0.294435
RightHandThumb1 -24.326973 -0.000000 -32.862282
LeftUpLeg -4.910264 -6.050749 1.635289
LeftLeg -4.570930 -0.000000 0.000000
LeftFoot -6.831693 8.224941 -17.149200
LeftToeBase -7.767253 -0.000000 0.000000
RightUpLeg -7.307835 -2.265483 3.062484
RightLeg -4.019022 -0.000000 0.000000
RightFoot -6.141591 -6.087168 6.164610
RightToeBase 4.485756 -0.000000 -0.000000
1796
root 3.393948 32.752655 -7.489336 13.540179 -1.050614 -1.395503
Spine -16.201686 -3.562488 0.289032
Head 15.791352 2.624189 1.170214
LeftShoulder -22.613466 40.460112 20.908962
LeftArm 54.047387 -57.935541 -59.062245
LeftForeArm 8.200399 0.000000 -1.448684
LeftHand 6.290002 -0.000000 2.653641
LeftHandThumb1 -26.253704 0.000000 33.147579
RightShoulder -9.602988 7.438821 -33.510550
RightArm 9.890670 17.373987 36.082621
RightForeArm -12.651793 -0.000000 1.313553
RightHand 1.996618 0.000000 0.125359
RightHandThumb1 -24.326973 -0.000000 -32.862282
LeftUpLeg -4.897683 -6.081096 1.609911
LeftLeg -4.565936 -0.000000 0.000000
LeftFoot -6.832889 8.283955 -17.143150
LeftToeBase -7.757359 -0.000000 0.000000
RightUpLeg -7.300145 -2.272170 3.040912
RightLeg -4.003182 -0.000000 0.000000
RightFoot -6.152113 -6.065955 6.134485
RightToeBase 4.469070 -0.000000 -0.000000
1797
root 3.387027 32.752081 -7.493144 13.512780 -1.071105 -1.361060
Spine -16.153576 -3.555237 0.252168
Head 15.816457 2.603263 1.149734
LeftShoulder -22.605077 40.468984 20.925749
LeftArm 53.924818 -57.893164 -58.933662
LeftForeArm 8.104328 -0.000000 -1.410162
LeftHand 6.273140 -0.000000 2.690520
LeftHandThumb1 -26.253704 0.000000 33.147579
RightShoulder -9.594868 7.460217 -33.543554
RightArm 9.896678 17.358688 36.111187
RightForeArm -12.654370 -0.000000 1.350172
RightHand 2.051217 0.000000 0.110310
RightHandThumb1 -24.326973 -0.000000 -32.862282
LeftUpLeg -4.880621 -6.083739 1.582702
LeftLeg -4.557093 -0.000000 0.000000
LeftFoot -6.834293 8.299491 -17.135136
LeftToeBase -7.770927 -0.000000 0.000000
RightUpLeg -7.281235 -2.267904 3.018047
RightLeg -4.002283 -0.000000 0.000000
RightFoot -6.161435 -6.066984 6.110811
RightToeBase 4.398592 -0.000000 -0.000000
1798
root 3.379130 32.751943 -7.497190 13.489704 -1.088421 -1.337009
Spine -16.107595 -3.538917 0.224480
Head 15.835618 2.540438 1.132079
LeftShoulder -22.602241 40.467905 20.928703
LeftArm 53.981472 -57.918541 -58.982626
LeftForeArm 8.144829 0.000000 -1.400922
LeftHand 6.273864 0.000000 2.719643
LeftHandThumb1 -26.253704 0.000000 33.147579
RightShoulder -9.596952 7.455066 -33.557203
RightArm 9.922767 17.310346 36.103285
RightForeArm -12.638380 -0.000000 1.384139
RightHand 2.038574 -0.000000 0.099980
RightHandThumb1 -24.326973 -0.000000 -32.862282
LeftUpLeg -4.866212 -6.076330 1.565882
LeftLeg -4.552526 -0.000000 0.000000
LeftFoot -6.815791 8.320288 -17.115548
LeftToeBase -7.816026 -0.000000 0.000000
RightUpLeg -7.268409 -2.259409 3.004765
RightLeg -3.997224 -0.000000 0.000000
RightFoot -6.169872 -6.057697 6.105066
RightToeBase 4.441840 -0.000000 -0.000000
1799
root 3.368969 32.751619 -7.501456 13.470942 -1.093601 -1.343170
Spine -16.067523 -3.535580 0.235181
Head 15.855266 2.497361 1.100652
LeftShoulder -22.580279 40.429150 20.953588
LeftArm 53.968196 -57.939360 -58.996885
LeftForeArm 8.125230 0.000000 -1.361271
LeftHand 6.257085 -0.000000 2.804820
LeftHandThumb1 -26.253704 0.000000 33.147579
RightShoulder -9.583360 7.449103 -33.558835
RightArm 9.943253 17.267384 36.067748
RightForeArm -12.623807 0.000000 1.435190
RightHand 1.862250 -0.000000 0.238645
RightHandThumb1 -24.326973 -0.000000 -32.862282
LeftUpLeg -4.850127 -6.050215 1.571824
LeftLeg -4.559576 -0.000000 0.000000
LeftFoot -6.828566 8.370759 -17.053107
LeftToeBase -7.833113 -0.000000 0.000000
RightUpLeg -7.254938 -2.245438 3.029029
RightLeg -3.999733 -0.000000 0.000000
RightFoot -6.163009 -6.074268 6.078561
RightToeBase 4.432833 -0.000000 -0.000000
